# xmcd
#
# Track frame offsets:
#	150
#	28925
#	42350
#	62500
#	102950
#	113525
#	131550
#	134600
#	152300
#	169800
#	190800
#	205200
#	224475
#	249325
#	271300
#
# Disc length: 3941 seconds
# Revision: 2
# Processed by: cddbd v1.5.2PL0 Copyright (c) Steve Scherf et al.
# Submitted via: dBpowerAMP V12.0
#
DISCID=d40f630f
DTITLE=Various Artist - Legends of Blues Guitar
DYEAR=1998
DGENRE=Blues
TTITLE0=Buddy Guy - First Time I Met the Blues
TTITLE1=Hubert Sumlin - Pickin'
TTITLE2=Muddy Waters - Where's My Woman Been
TTITLE3=Albert Collins - Conversation With Collins
TTITLE4=Eric Clapton - West Coast Idea
TTITLE5=Louisiana Red - Nothing But a Gypsy Man
TTITLE6=Doctor Ross - Boogie for the Doctor
TTITLE7=Brownie McGee - The Way I Feel
TTITLE8=Mississippi Fred McDowell - Write Me a Few Short Lines
TTITLE9=Various Artist - Stomp Boogie
TTITLE10=Phil Guy - Ice Around My Heart
TTITLE11=Eddie C Campbell - Cha Cha in Blues
TTITLE12=Jimmy Rogers - You're Sweet
TTITLE13=Lowell Fulson - Lowell's Jump
TTITLE14=Various Artist - Not Described
EXTD=
EXTT0=
EXTT1=
EXTT2=
EXTT3=
EXTT4=
EXTT5=
EXTT6=
EXTT7=
EXTT8=
EXTT9=
EXTT10=
EXTT11=
EXTT12=
EXTT13=
EXTT14=
PLAYORDER=
